Patient4_TMGait_0pt8_01_right_15_GRF.mot
version=1
nRows=45
nColumns=19
inDegrees=no
endheader
time	F1x	F1y	F1z	M1x	M1y	M1z	F2x	F2y	F2z	M2x	M2y	M2z	EC1x	EC1y	EC1z	EC2x	EC2y	EC2z
16.56	-6.48	723.7433	64.0046	-231.4485	-72.4804	832.1149	-12.6997	3.9971	-0.29362	1.7266	4.2706	0.7699	-0.0592	0.0182	-0.0073	-0.0462	0.0165	0.9585
16.5716	-7.1545	725.5889	63.6516	-231.4047	-71.8851	829.9007	-8.6997	3.6838	-0.48342	1.6445	3.1859	1.8335	-0.0592	0.0182	-0.0073	-0.0462	0.0165	0.9585
16.5831	-7.3227	727.5486	63.2607	-231.3848	-70.9449	827.1148	-5.3177	3.4362	-0.52566	1.5467	2.1842	2.7188	-0.0592	0.0182	-0.0073	-0.0462	0.0165	0.9585
16.5947	-6.8319	729.3986	62.8597	-231.3554	-69.6702	823.6347	-2.7381	3.264	-0.49256	1.4614	1.3779	3.3847	-0.0592	0.0182	-0.0073	-0.0462	0.0165	0.9585
16.6063	-5.5897	730.9207	62.4675	-231.2727	-68.0907	819.311	-0.97169	3.1749	-0.42545	1.4053	0.7972	3.8775	-0.0592	0.0182	-0.0073	-0.0462	0.0165	0.9585
16.6179	-3.5467	731.9142	62.1144	-231.0874	-66.2644	814.0034	0.11301	3.1428	-0.35492	1.3763	0.42652	4.2006	-0.0592	0.0182	-0.0073	-0.0462	0.0165	0.9585
16.6294	-0.69233	732.2013	61.8497	-230.746	-64.2772	807.5856	0.65372	3.1515	-0.3019	1.3661	0.24245	4.4029	-0.0592	0.0182	-0.0073	-0.0462	0.0165	0.9585
16.641	2.9365	731.636	61.7135	-230.1973	-62.2136	799.9667	0.81982	3.1241	-0.27704	1.3459	0.20749	4.4471	-0.0592	0.0182	-0.0073	-0.0462	0.0165	0.9585
16.6526	7.2705	730.1572	61.747	-229.4129	-60.1595	791.1475	0.72589	3.0083	-0.29204	1.2884	0.30075	4.3112	-0.0592	0.0182	-0.0073	-0.0462	0.0165	0.9585
16.6641	12.2084	727.8094	61.9535	-228.3962	-58.1638	781.2464	0.4923	2.6921	-0.35237	1.1481	0.4913	3.8699	-0.0592	0.0182	-0.0073	-0.0462	0.0165	0.9585
16.6757	17.6541	724.8111	62.3381	-227.199	-56.2636	770.5519	0.185	2.0813	-0.4557	0.87847	0.75267	3.0337	-0.0592	0.0182	-0.0073	-0.0462	0.0165	0.9585
16.6873	23.5028	721.5599	62.9234	-225.9231	-54.502	759.537	-0.11533	1.0449	-0.59039	0.42351	1.0431	1.6391	-0.0592	0.0182	-0.0073	-0.0462	0.0165	0.9585
16.6989	29.6745	718.6877	63.7679	-224.7411	-52.946	748.9304	-0.3738	-0.51201	-0.73897	-0.26168	1.3212	-0.43196	-0.0592	0.0182	-0.0073	-0.0462	0.0165	0.9585
16.7104	36.0849	717.0484	64.9526	-223.9007	-51.6781	739.6975	-0.51089	-2.6473	-0.8614	-1.1981	1.5037	-3.2731	-0.0592	0.0182	-0.0073	-0.0462	0.0165	0.9585
16.722	42.6334	717.5769	66.5437	-223.681	-50.7703	732.8599	-0.47807	-5.2872	-0.91828	-2.3501	1.5037	-6.78	-0.0592	0.0182	-0.0073	-0.0462	0.0165	0.9585
16.7336	49.1486	721.0155	68.5806	-224.3053	-50.2942	729.2501	-0.16087	-8.167	-0.8401	-3.5946	1.1905	-10.6141	-0.0592	0.0182	-0.0073	-0.0462	0.0165	0.9585
16.7451	55.3864	727.5782	71.0424	-225.8329	-50.2894	729.1624	0.52929	-10.7093	-0.54263	-4.6723	0.42067	-14.0078	-0.0592	0.0182	-0.0073	-0.0462	0.0165	0.9585
16.7567	61.0555	736.7439	73.8604	-228.0868	-50.7702	732.1666	1.7265	-11.928	0.089926	-5.1444	-0.99634	-15.6818	-0.0592	0.0182	-0.0073	-0.0462	0.0165	0.9585
16.7683	65.8724	747.2845	76.8743	-230.6663	-51.6699	737.1353	3.4913	-10.3306	1.1752	-4.3586	-3.234	-13.6772	-0.0592	0.0182	-0.0073	-0.0462	0.0165	0.9585
16.7799	69.6023	757.5052	79.8548	-233.029	-52.8588	742.4955	5.8538	-3.9111	2.8235	-1.44	-6.4311	-5.3723	-0.0592	0.0182	-0.0073	-0.0462	0.0165	0.9585
16.7914	72.1261	765.5584	82.4957	-234.5986	-54.1125	746.4931	8.6725	9.8145	5.0786	4.6825	-10.5713	12.4953	-0.0592	0.0182	-0.0073	-0.0462	0.0165	0.9585
16.803	73.4961	769.6517	84.4458	-234.8434	-55.1198	747.3981	11.618	33.5253	7.8756	15.1567	-15.3988	43.4348	-0.0592	0.0182	-0.0073	-0.0462	0.0165	0.9585
16.8146	73.9183	768.1827	85.3464	-233.3269	-55.514	743.6056	14.0172	69.6022	10.9357	30.9811	-20.2311	90.5871	-0.0592	0.0182	-0.0073	-0.0462	0.0165	0.9585
16.8261	73.6994	759.7943	84.8239	-229.7232	-54.8744	733.6851	14.7406	119.2478	13.7003	52.628	-23.82	155.5382	-0.0592	0.0182	-0.0073	-0.0462	0.0165	0.9585
16.8377	73.1389	743.3239	82.5653	-223.7875	-52.825	716.3625	12.0626	181.408	15.3622	79.5598	-24.3551	236.9367	-0.0592	0.0182	-0.0073	-0.0462	0.0165	0.9585
16.8493	72.4073	717.6695	78.3358	-215.2931	-49.0941	690.4377	4.568	251.7087	14.8399	109.7919	-19.8502	329.0745	-0.0592	0.0182	-0.0073	-0.0462	0.0165	0.9585
16.8609	71.403	681.7744	72.0877	-203.9966	-43.6602	654.8153	-7.2011	322.7585	11.0619	140.0703	-9.3221	422.2052	-0.0592	0.0182	-0.0073	-0.0462	0.0165	0.9585
16.8724	69.7179	634.8719	64.003	-189.6933	-36.8067	608.7562	-20.8097	387.1052	4.0468	167.2407	6.0089	506.2212	-0.0592	0.0182	-0.0073	-0.0462	0.0165	0.9585
16.884	66.7657	577.0659	54.5523	-172.3795	-29.1288	552.4325	-34.0271	441.7129	-5.0688	190.0306	23.6948	576.7876	-0.0592	0.0182	-0.0073	-0.0462	0.0165	0.9585
16.8956	62.0435	509.7542	44.4206	-152.3974	-21.3898	487.2629	-45.381	487.394	-14.9973	208.8649	41.4676	634.6614	-0.0592	0.0182	-0.0073	-0.0462	0.0165	0.9585
16.9071	55.2973	435.6704	34.455	-130.4637	-14.4235	415.9159	-54.0934	526.9181	-24.6734	225.0039	57.6366	683.3904	-0.0592	0.0182	-0.0073	-0.0462	0.0165	0.9585
16.9187	46.5975	358.5447	25.3992	-107.5991	-8.8715	341.9625	-59.8565	563.0771	-33.1044	239.7238	70.8655	726.6546	-0.0592	0.0182	-0.0073	-0.0462	0.0165	0.9585
16.9303	36.4036	282.6711	17.7981	-85.0226	-5.0867	269.4689	-62.8089	597.4127	-39.8146	253.7306	80.625	766.6084	-0.0592	0.0182	-0.0073	-0.0462	0.0165	0.9585
16.9419	25.5883	212.3138	11.8763	-63.9935	-3.0153	202.4236	-63.3456	630.1651	-44.8323	267.134	87.1301	803.7499	-0.0592	0.0182	-0.0073	-0.0462	0.0165	0.9585
16.9534	15.322	150.9183	7.5742	-45.5663	-2.2498	144.0092	-62.1468	660.8476	-48.4713	279.6899	91.0725	837.7157	-0.0592	0.0182	-0.0073	-0.0462	0.0165	0.9585
16.965	6.6929	100.411	4.6178	-30.3581	-2.2047	95.9707	-59.9277	688.6541	-51.2493	290.9996	93.3955	867.7501	-0.0592	0.0182	-0.0073	-0.0462	0.0165	0.9585
16.9766	0.34588	61.1369	2.659	-18.5061	-2.3614	58.5883	-57.3747	712.7817	-53.5472	300.6703	94.882	893.1049	-0.0592	0.0182	-0.0073	-0.0462	0.0165	0.9585
16.9881	-3.6257	32.4027	1.3661	-9.821	-2.3887	31.2071	-54.937	732.5061	-55.7173	308.3651	96.1543	913.0592	-0.0592	0.0182	-0.0073	-0.0462	0.0165	0.9585
16.9997	-5.4655	12.814	0.5259	-3.8922	-2.1725	12.5271	-52.8907	747.2888	-57.8066	313.8522	97.4023	927.0259	-0.0592	0.0182	-0.0073	-0.0462	0.0165	0.9585
17.0113	-5.6922	0.67064	0.0095583	-0.20985	-1.762	0.9514	-51.283	756.8375	-59.7601	317.031	98.5721	934.6554	-0.0592	0.0182	-0.0073	-0.0462	0.0165	0.9585
17.0229	-4.9919	-5.775	-0.27557	1.751	-1.2887	-5.1891	-50.0057	761.3365	-61.301	318.0145	99.3118	936.1594	-0.0592	0.0182	-0.0073	-0.0462	0.0165	0.9585
17.0344	-3.893	-8.2575	-0.37301	2.5093	-0.8783	-7.5373	-48.8656	761.3334	-62.2505	317.0685	99.3343	932.1784	-0.0592	0.0182	-0.0073	-0.0462	0.0165	0.9585
17.046	-2.7346	-8.2628	-0.3687	2.5102	-0.55132	-7.5167	-47.6768	757.5739	-62.5245	314.5352	98.4716	923.5885	-0.0592	0.0182	-0.0073	-0.0462	0.0165	0.9585
17.0576	-1.7133	-6.9591	-0.28341	2.1084	-0.34437	-6.25	-46.3032	750.8758	-62.2385	310.7697	96.8075	911.3563	-0.0592	0.0182	-0.0073	-0.0462	0.0165	0.9585
17.0691	-0.90494	-5.1461	-0.18066	1.546	-0.21848	-4.5163	-44.6794	742.0402	-61.6169	306.1115	94.5818	896.4464	-0.0592	0.0182	-0.0073	-0.0462	0.0165	0.9585
